<?xml version="1.0" standalone="no"?>
<!DOCTYPE svg PUBLIC "-//W3C//DTD SVG 20010904//EN"
 "http://www.w3.org/TR/2001/REC-SVG-20010904/DTD/svg10.dtd">
<svg version="1.0" xmlns="http://www.w3.org/2000/svg"
 width="1024.000000pt" height="1024.000000pt" viewBox="0 0 1024.000000 1024.000000"
 preserveAspectRatio="xMidYMid meet">

<g transform="translate(0.000000,1024.000000) scale(0.100000,-0.100000)"
fill="#000000" stroke="none">
<path d="M4985 8846 c-66 -34 -300 -163 -520 -286 -220 -122 -515 -284 -655
-360 -551 -296 -705 -379 -980 -528 -644 -348 -933 -508 -963 -533 l-32 -27 3
-1713 c2 -1195 6 -1717 14 -1726 6 -7 15 -13 21 -13 5 0 379 -184 831 -409
452 -225 1175 -583 1609 -796 l787 -388 768 378 c753 371 2200 1094 2397 1197
l100 53 -3 1715 -3 1715 -22 17 c-55 43 -288 170 -1542 841 -517 276 -1048
568 -1430 787 -156 89 -250 140 -257 140 -2 0 -57 -29 -123 -64z m380 -218
c208 -126 476 -274 860 -478 138 -73 365 -194 505 -270 443 -238 776 -413
1065 -559 154 -78 269 -139 255 -136 -297 65 -1488 276 -2180 385 -146 23
-348 55 -450 71 -102 16 -202 32 -222 35 l-38 6 0 534 c0 295 3 533 8 531 4
-2 93 -56 197 -119z m-325 80 c0 -18 2 -257 5 -530 4 -463 3 -497 -13 -502 -9
-2 -204 -35 -432 -71 -1247 -200 -2264 -375 -2445 -421 -11 -3 124 69 300 159
176 90 446 231 600 314 154 82 359 192 455 243 609 324 1133 610 1310 716 113
67 208 122 213 123 4 1 7 -14 7 -31z m-554 -1871 c-697 -1047 -988 -1496
-1296 -2002 -73 -121 -139 -226 -145 -233 -10 -11 -59 103 -240 555 -285 715
-465 1145 -717 1721 -45 100 -79 185 -77 187 3 2 490 85 1084 185 1175 196
1762 295 1791 303 11 3 33 5 50 6 31 1 22 -13 -450 -722z m1038 677 c155 -25
592 -97 971 -161 380 -63 771 -128 870 -144 99 -16 321 -54 492 -84 172 -30
315 -55 318 -55 14 0 -11 -65 -196 -496 -158 -369 -578 -1407 -774 -1912 -16
-40 -32 -69 -36 -65 -6 7 -337 531 -526 835 -74 120 -816 1235 -1144 1720
-148 218 -269 399 -269 402 0 8 -12 10 294 -40z m-232 -249 c575 -856 819
-1220 868 -1295 30 -46 143 -218 250 -381 249 -380 670 -1047 670 -1064 0 -3
-889 -5 -1975 -5 -1086 0 -1975 3 -1975 6 0 30 632 1025 1114 1754 661 1001
848 1273 861 1258 7 -7 91 -130 187 -273z m-3248 -536 c46 -112 147 -355 224
-540 222 -531 679 -1649 684 -1674 2 -8 -123 -101 -295 -220 -164 -113 -386
-269 -493 -346 -107 -76 -199 -139 -204 -139 -7 0 -10 567 -10 1567 0 861 2
1564 5 1561 3 -2 43 -97 89 -209z m6202 -2917 c-3 -2 -58 34 -123 80 -65 47
-217 153 -338 237 -452 313 -520 362 -519 374 2 15 672 1685 828 2064 64 155
116 284 116 286 0 3 8 22 18 43 16 37 17 -26 20 -1520 1 -858 0 -1561 -2
-1564z m-1198 588 c-3 -10 -415 -470 -623 -695 -230 -249 -335 -365 -585 -645
-135 -150 -310 -346 -389 -434 -79 -89 -189 -212 -245 -274 l-101 -114 -23 29
c-13 15 -59 66 -101 113 -42 47 -196 218 -341 380 -146 162 -334 372 -420 465
-85 94 -245 269 -355 390 -110 120 -254 278 -319 350 -170 186 -369 407 -385
428 -13 16 81 17 1939 17 1254 0 1950 -3 1948 -10z m-3839 -223 c101 -117 342
-385 535 -596 193 -211 380 -416 415 -455 35 -39 110 -120 166 -181 56 -60
173 -189 260 -285 86 -96 198 -219 247 -273 50 -54 89 -100 87 -101 -2 -2
-101 48 -219 111 -391 208 -2231 1123 -2562 1274 -54 24 -98 47 -98 51 0 4
145 107 323 229 177 123 392 271 477 330 85 60 162 108 170 108 8 -1 98 -96
199 -212z m4191 78 c100 -70 311 -215 469 -322 157 -107 290 -198 294 -203 4
-4 -54 -35 -130 -70 -476 -216 -2258 -1108 -2703 -1353 l-55 -30 46 49 c131
141 301 327 439 479 84 94 192 212 239 264 47 52 128 142 180 200 103 116 220
245 411 451 69 75 199 219 289 320 288 324 313 351 327 346 7 -3 94 -62 194
-131z"/>
<path d="M4461 6214 c-80 -21 -145 -60 -206 -125 -65 -68 -123 -181 -132 -257
-5 -49 -5 -51 27 -70 40 -25 127 -37 163 -23 21 8 36 30 63 88 19 43 43 86 52
97 27 30 93 56 147 56 67 0 114 -26 143 -81 20 -37 23 -54 19 -109 -10 -139
-89 -251 -405 -572 l-223 -227 5 -78 c3 -43 5 -81 6 -85 0 -4 7 -14 16 -22 13
-14 67 -16 433 -16 492 0 451 -11 451 123 0 81 -2 87 -26 106 -25 20 -39 21
-270 21 -134 0 -244 3 -244 6 0 3 60 69 134 147 225 238 298 334 354 469 23
55 27 77 27 173 0 100 -3 116 -29 172 -31 69 -98 138 -164 172 -98 50 -234 64
-341 35z"/>
<path d="M5490 6212 c-263 -71 -405 -376 -378 -814 26 -415 249 -662 558 -619
158 22 276 116 355 283 63 135 80 226 80 438 0 178 -8 236 -47 360 -87 277
-316 419 -568 352z m225 -266 c85 -65 116 -162 122 -388 10 -303 -37 -466
-148 -524 -48 -24 -128 -18 -180 14 -84 54 -124 166 -135 382 -14 280 41 469
156 528 61 32 134 27 185 -12z"/>
</g>
</svg>
